<svg xmlns="http://www.w3.org/2000/svg" viewBox="0 0 900 582" font-family="system-ui, -apple-system, sans-serif">
  <defs>
    <linearGradient id="hdr" x1="0%" y1="0%" x2="100%" y2="0%"><stop offset="0%" style="stop-color:#1e293b"/><stop offset="100%" style="stop-color:#334155"/></linearGradient>
    <linearGradient id="g1" x1="0%" y1="0%" x2="100%" y2="0%"><stop offset="0%" style="stop-color:#22c55e"/><stop offset="100%" style="stop-color:#16a34a"/></linearGradient>
    <linearGradient id="g2" x1="0%" y1="0%" x2="100%" y2="0%"><stop offset="0%" style="stop-color:#3b82f6"/><stop offset="100%" style="stop-color:#2563eb"/></linearGradient>
    <linearGradient id="g3" x1="0%" y1="0%" x2="100%" y2="0%"><stop offset="0%" style="stop-color:#f59e0b"/><stop offset="100%" style="stop-color:#d97706"/></linearGradient>
    <linearGradient id="g4" x1="0%" y1="0%" x2="100%" y2="0%"><stop offset="0%" style="stop-color:#8b5cf6"/><stop offset="100%" style="stop-color:#7c3aed"/></linearGradient>
    <filter id="sh"><feDropShadow dx="0" dy="2" stdDeviation="3" flood-opacity="0.08"/></filter>
  </defs>
  <rect x="0" y="0" width="900" height="582" rx="12" fill="#fafafa"/>
  <rect x="0" y="0" width="900" height="56" rx="12" fill="url(#hdr)"/>
  <rect x="0" y="20" width="900" height="36" rx="0" fill="url(#hdr)"/>
  <text x="450" y="36" text-anchor="middle" fill="white" font-size="20" font-weight="700">TreeDex Benchmark Results</text>
  <text x="450" y="74" text-anchor="middle" fill="#64748b" font-size="11" font-weight="400">synthetic + Electromagnetic Waves — NCERT Physics (14 p...  |  2026-06-09 17:23 UTC</text>
  <rect x="30" y="88" width="410" height="96" rx="10" fill="white" stroke="#e2e8f0" stroke-width="1" filter="url(#sh)"/>
  <rect x="30" y="88" width="5" height="96" rx="3" fill="url(#g1)"/>
  <text x="52" y="112" text-anchor="start" fill="#64748b" font-size="11" font-weight="600">Build Time</text>
  <text x="52" y="142" text-anchor="start" fill="#1e293b" font-size="24" font-weight="800">0.1 ms</text>
  <text x="52" y="162" text-anchor="start" fill="#94a3b8" font-size="10" font-weight="400">Tree index construction</text>
  <rect x="460" y="88" width="410" height="96" rx="10" fill="white" stroke="#e2e8f0" stroke-width="1" filter="url(#sh)"/>
  <rect x="460" y="88" width="5" height="96" rx="3" fill="url(#g2)"/>
  <text x="482" y="112" text-anchor="start" fill="#64748b" font-size="11" font-weight="600">Index Size</text>
  <text x="482" y="142" text-anchor="start" fill="#1e293b" font-size="24" font-weight="800">38.9 KB</text>
  <text x="482" y="162" text-anchor="start" fill="#94a3b8" font-size="10" font-weight="400">Portable JSON file</text>
  <rect x="30" y="200" width="410" height="96" rx="10" fill="white" stroke="#e2e8f0" stroke-width="1" filter="url(#sh)"/>
  <rect x="30" y="200" width="5" height="96" rx="3" fill="url(#g3)"/>
  <text x="52" y="224" text-anchor="start" fill="#64748b" font-size="11" font-weight="600">Structure Validation</text>
  <text x="52" y="254" text-anchor="start" fill="#1e293b" font-size="24" font-weight="800">100%</text>
  <text x="52" y="274" text-anchor="start" fill="#94a3b8" font-size="10" font-weight="400">20 queries matched</text>
  <rect x="460" y="200" width="410" height="96" rx="10" fill="white" stroke="#e2e8f0" stroke-width="1" filter="url(#sh)"/>
  <rect x="460" y="200" width="5" height="96" rx="3" fill="url(#g4)"/>
  <text x="482" y="224" text-anchor="start" fill="#64748b" font-size="11" font-weight="600">Tree Nodes</text>
  <text x="482" y="254" text-anchor="start" fill="#1e293b" font-size="24" font-weight="800">28</text>
  <text x="482" y="274" text-anchor="start" fill="#94a3b8" font-size="10" font-weight="400">30,019 chars indexed</text>
  <rect x="30" y="328" width="840" height="200" rx="10" fill="white" stroke="#e2e8f0" stroke-width="1" filter="url(#sh)"/>
  <text x="450" y="350" text-anchor="middle" fill="#1e293b" font-size="13" font-weight="700">Example: Electromagnetic Waves Index Tree</text>
  <circle cx="50" cy="365" r="4" fill="#1e293b"/>
  <text x="60" y="369" text-anchor="start" fill="#1e293b" font-size="11" font-weight="500">1: Electromagnetic Waves</text>
  <text x="850" y="369" text-anchor="end" fill="#94a3b8" font-size="10" font-weight="400">14 pages</text>
  <line x1="62" y1="381" x2="70" y2="381" stroke="#cbd5e1" stroke-width="1.5"/>
  <circle cx="74" cy="381" r="3" fill="#22c55e"/>
  <text x="84" y="385" text-anchor="start" fill="#1e293b" font-size="11" font-weight="500">1.1: Introduction</text>
  <text x="850" y="385" text-anchor="end" fill="#94a3b8" font-size="10" font-weight="400">page 0</text>
  <line x1="62" y1="397" x2="70" y2="397" stroke="#cbd5e1" stroke-width="1.5"/>
  <circle cx="74" cy="397" r="3" fill="#22c55e"/>
  <text x="84" y="401" text-anchor="start" fill="#1e293b" font-size="11" font-weight="500">1.2: Displacement Current</text>
  <text x="850" y="401" text-anchor="end" fill="#94a3b8" font-size="10" font-weight="400">pages 1-3</text>
  <line x1="62" y1="413" x2="70" y2="413" stroke="#cbd5e1" stroke-width="1.5"/>
  <circle cx="74" cy="413" r="3" fill="#22c55e"/>
  <text x="84" y="417" text-anchor="start" fill="#1e293b" font-size="11" font-weight="500">1.3: Electromagnetic Waves</text>
  <text x="850" y="417" text-anchor="end" fill="#94a3b8" font-size="10" font-weight="400">pages 4-6</text>
  <line x1="86" y1="429" x2="94" y2="429" stroke="#cbd5e1" stroke-width="1.5"/>
  <circle cx="98" cy="429" r="3" fill="#22c55e"/>
  <text x="108" y="433" text-anchor="start" fill="#1e293b" font-size="11" font-weight="500">1.3.1: Sources</text>
  <text x="850" y="433" text-anchor="end" fill="#94a3b8" font-size="10" font-weight="400">page 4</text>
  <line x1="86" y1="445" x2="94" y2="445" stroke="#cbd5e1" stroke-width="1.5"/>
  <circle cx="98" cy="445" r="3" fill="#22c55e"/>
  <text x="108" y="449" text-anchor="start" fill="#1e293b" font-size="11" font-weight="500">1.3.2: Nature</text>
  <text x="850" y="449" text-anchor="end" fill="#94a3b8" font-size="10" font-weight="400">pages 5-6</text>
  <line x1="62" y1="461" x2="70" y2="461" stroke="#cbd5e1" stroke-width="1.5"/>
  <circle cx="74" cy="461" r="3" fill="#22c55e"/>
  <text x="84" y="465" text-anchor="start" fill="#1e293b" font-size="11" font-weight="500">1.4: Electromagnetic Spectrum</text>
  <text x="850" y="465" text-anchor="end" fill="#94a3b8" font-size="10" font-weight="400">pages 7-13</text>
  <line x1="86" y1="477" x2="94" y2="477" stroke="#cbd5e1" stroke-width="1.5"/>
  <circle cx="98" cy="477" r="3" fill="#22c55e"/>
  <text x="108" y="481" text-anchor="start" fill="#1e293b" font-size="11" font-weight="500">1.4.1: Radio waves</text>
  <text x="850" y="481" text-anchor="end" fill="#94a3b8" font-size="10" font-weight="400">page 8</text>
  <line x1="86" y1="493" x2="94" y2="493" stroke="#cbd5e1" stroke-width="1.5"/>
  <circle cx="98" cy="493" r="3" fill="#22c55e"/>
  <text x="108" y="497" text-anchor="start" fill="#1e293b" font-size="11" font-weight="500">1.4.2: Microwaves</text>
  <text x="850" y="497" text-anchor="end" fill="#94a3b8" font-size="10" font-weight="400">page 8</text>
  <line x1="86" y1="509" x2="94" y2="509" stroke="#cbd5e1" stroke-width="1.5"/>
  <circle cx="98" cy="509" r="3" fill="#22c55e"/>
  <text x="108" y="513" text-anchor="start" fill="#1e293b" font-size="11" font-weight="500">1.4.3-7: IR, Visible, UV, X-ray, Gamma</text>
  <text x="850" y="513" text-anchor="end" fill="#94a3b8" font-size="10" font-weight="400">pages 9-13</text>
  <rect x="30" y="544" width="840" height="26" rx="6" fill="#f0fdf4" stroke="#bbf7d0" stroke-width="1"/>
  <text x="450" y="561" text-anchor="middle" fill="#16a34a" font-size="11" font-weight="600">Avg 1,072 chars/node  |  28 nodes  |  38.9 KB  |  0.1 ms build</text>
</svg>